<?xml version="1.0" encoding="UTF-8"?>
<svg id="Layer_2" data-name="Layer 2" xmlns="http://www.w3.org/2000/svg" viewBox="0 0 1828.06 984.81">
  <defs>
    <style>
      .cls-1 {
        fill: #fff;
      }
    </style>
  </defs>
  <g>
    <path class="cls-1" d="M64.16,671.25c-36.69-42.7-58.78-100.32-58.78-165.39,0-136.69,99.02-242.17,226.02-242.17,68.88,0,124.85,31.21,163.6,82.87l11.84-72.11h82.88v330.42l8.61,18.3c18.3,41.97,29.06,89.33,29.06,129.15,0,138.84-109.78,232.48-268,232.48-94.71,0-185.12-31.21-259.39-94.71l50.59-71.04c63.5,52.74,132.39,80.72,205.57,80.72,105.48,0,175.44-62.43,175.44-152.84,0-32.28-6.46-61.35-23.68-95.79-37.67,59.2-100.1,96.87-176.51,96.87-67.02,0-126.24-29.07-167.24-76.78M130.39,600.66c25.83,37.58,67.54,61.26,117.15,61.26,86.1,0,152.83-63.5,152.83-148.53,0-91.49-66.73-162.52-152.83-162.52s-145.3,67.8-145.3,154.99c0,36.1,10.27,68.78,28.14,94.8"/>
    <path class="cls-1" d="M702.81,758.79h-96.87V0h96.87v758.79Z"/>
    <path class="cls-1" d="M1038.59,759.32c-149.6,0-257.24-108.71-257.24-252.93,0-144.22,105.48-252.93,244.32-252.93,134.54,0,234.63,108.71,234.63,251.85,0,10.76-1.07,20.45-3.23,30.14h-385.31c11.84,85.03,76.42,143.15,164.67,143.15M872.85,467.65h295.98c-11.84-78.57-66.73-134.54-145.3-134.54-77.49,0-135.61,54.89-150.68,134.54Z"/>
    <path class="cls-1" d="M1696.24,759.32h-401.46v-69.96l269.07-329.35h-258.31v-85.03h379.93v67.81l-269.08,331.5h279.84v85.03Z"/>
  </g>
  <rect class="cls-1" x="1743.03" y="674.3" width="85.03" height="85.03"/>
</svg>